<?xml version="1.0" encoding="UTF-8" standalone="no"?> <svg xmlns="http://www.w3.org/2000/svg" width="539.000000pt" height="140.000000pt" viewBox="0 0 539.000000 140.000000" preserveAspectRatio="xMidYMid meet"> <g transform="translate(0.000000,140.000000) scale(0.100000,-0.100000)" fill="#000000" stroke="none"> <path d="M855 1365 c-35 -34 -35 -96 0 -130 57 -58 155 -15 155 67 0 54 -35 88 -90 88 -30 0 -47 -6 -65 -25z m107 -22 c38 -34 11 -103 -40 -103 -54 0 -81 62 -45 102 20 22 61 23 85 1z"></path> <path d="M468 1360 c-21 -11 -45 -31 -53 -44 -13 -19 -27 -25 -70 -28 -88 -7 -164 -86 -165 -170 0 -18 -10 -33 -29 -47 -48 -34 -71 -81 -71 -143 0 -45 -4 -59 -25 -78 -32 -30 -43 -76 -41 -172 1 -68 4 -80 27 -105 22 -23 25 -33 18 -56 -8 -29 2 -69 24 -95 6 -8 13 -33 14 -55 5 -72 71 -146 143 -162 18 -4 30 -16 39 -40 14 -41 69 -86 148 -122 78 -36 205 -40 250 -7 60 44 58 26 57 644 0 424 -4 574 -13 603 -20 59 -70 91 -150 94 -51 3 -74 -1 -103 -17z m195 -48 c29 -29 32 -38 35 -107 l4 -75 -46 0 c-47 0 -94 -18 -129 -48 -16 -14 -20 -14 -45 4 -41 30 -74 101 -68 147 5 42 25 69 71 99 23 15 43 18 88 15 49 -3 63 -8 90 -35z m-283 -92 c0 -56 21 -100 69 -146 40 -39 40 -40 29 -78 -8 -24 -22 -43 -40 -52 -38 -19 -66 -63 -49 -74 9 -5 23 3 40 23 27 29 53 35 105 26 33 -7 30 21 -3 32 -26 9 -31 15 -26 33 19 63 87 116 151 116 l44 0 0 -216 0 -216 -33 -33 c-39 -39 -101 -60 -151 -51 -44 8 -104 59 -123 103 -7 18 -20 33 -28 33 -19 0 -19 -1 2 -51 16 -41 16 -42 -6 -61 -33 -26 -86 -23 -116 6 -45 45 -45 105 0 147 27 27 33 49 11 49 -19 0 -64 -55 -72 -86 -20 -80 40 -164 117 -164 24 0 55 8 73 20 l32 19 49 -24 c66 -34 119 -32 189 4 l56 30 0 -133 c0 -149 -4 -158 -82 -191 -51 -21 -56 -20 -60 17 -2 21 -8 33 -18 33 -11 0 -14 -9 -12 -37 4 -38 -18 -93 -40 -101 -10 -4 -10 -7 0 -18 11 -12 19 -8 45 24 18 20 39 37 47 37 8 0 39 11 68 25 l52 24 0 -84 c0 -133 -24 -161 -139 -159 -76 1 -154 31 -213 83 -61 53 -71 115 -32 197 13 28 19 32 34 24 25 -13 30 -13 30 5 0 9 -7 18 -15 22 -9 3 -22 18 -30 34 -10 18 -20 26 -30 23 -11 -5 -12 -10 -4 -26 9 -16 7 -28 -9 -57 -11 -20 -23 -53 -27 -73 -10 -52 -36 -50 -91 6 -39 38 -44 49 -44 88 0 51 24 89 71 113 24 13 41 45 24 45 -19 0 -87 -44 -101 -66 -13 -19 -19 -22 -25 -12 -13 20 -10 62 6 84 20 26 19 27 -14 42 -36 16 -58 64 -45 100 5 15 24 36 41 47 31 19 44 45 23 45 -6 0 -25 -7 -41 -16 -30 -15 -31 -15 -24 8 12 45 30 70 57 84 24 12 27 18 18 34 -21 39 -12 97 21 135 17 19 36 35 43 35 6 0 20 -16 31 -36 23 -43 85 -90 96 -72 5 7 -10 28 -36 52 -67 63 -80 145 -32 207 20 27 80 59 110 59 25 0 27 -3 27 -40z"></path> <path d="M1114 1236 c-38 -17 -71 -61 -76 -101 -2 -22 -10 -30 -32 -36 -24 -7 -35 -3 -63 21 -45 40 -85 40 -124 1 -59 -60 -23 -156 59 -156 45 0 89 32 94 68 2 12 15 24 31 30 26 8 32 6 57 -24 34 -40 35 -47 13 -94 -16 -34 -18 -35 -75 -35 -69 0 -113 -17 -150 -56 -35 -38 -48 -74 -48 -136 0 -127 121 -210 256 -175 30 8 33 6 63 -43 30 -48 30 -52 15 -75 -13 -19 -25 -25 -54 -25 -50 0 -70 8 -70 30 0 9 -12 29 -26 44 -36 35 -95 36 -129 1 -35 -34 -35 -96 0 -130 34 -35 96 -35 131 0 20 20 35 25 73 25 l48 0 7 -39 c4 -25 17 -51 36 -70 96 -95 255 -1 220 130 -19 68 -102 113 -165 89 -15 -6 -29 -9 -30 -8 -2 2 -17 25 -33 52 l-31 49 23 31 c30 40 48 97 44 137 -3 28 3 36 45 67 42 30 51 33 73 23 41 -18 74 -13 105 18 59 60 23 156 -59 156 -59 0 -92 -34 -92 -94 -1 -42 -4 -48 -41 -73 -41 -29 -59 -35 -59 -19 0 5 -13 22 -30 38 -35 33 -36 41 -10 92 16 32 23 38 43 34 14 -3 45 4 69 15 102 45 104 183 4 232 -49 23 -69 24 -112 6z m112 -41 c53 -34 54 -119 1 -158 -42 -32 -93 -28 -128 11 -37 42 -39 89 -4 131 36 42 81 47 131 16z m-306 -95 c33 -33 24 -85 -17 -101 -25 -9 -60 2 -75 25 -23 34 10 96 52 96 11 0 29 -9 40 -20z m454 -141 c31 -25 34 -61 6 -89 -24 -24 -48 -25 -78 -4 -22 15 -30 57 -14 80 7 11 42 33 53 34 4 0 18 -9 33 -21z m-320 -93 c40 -17 73 -57 86 -105 29 -108 -83 -220 -192 -191 -80 22 -124 86 -116 169 11 110 117 171 222 127z m-94 -416 c24 -24 26 -57 3 -82 -34 -38 -103 -11 -103 40 0 56 61 81 100 42z m353 -28 c52 -54 29 -142 -42 -163 -31 -9 -43 -8 -70 5 -39 21 -66 73 -57 111 19 76 116 103 169 47z"></path> <path d="M1133 1120 c-23 -62 -17 -76 20 -43 18 17 19 17 32 0 18 -25 38 -22 29 6 -37 116 -51 123 -81 37z m42 0 c3 -5 1 -10 -4 -10 -6 0 -11 5 -11 10 0 6 2 10 4 10 3 0 8 -4 11 -10z"></path> <path d="M930 724 l0 -75 51 3 c57 3 78 22 64 54 -4 11 -7 32 -6 48 3 35 -12 46 -66 46 l-43 0 0 -76z m80 31 c0 -9 -9 -15 -25 -15 -16 0 -25 6 -25 15 0 9 9 15 25 15 16 0 25 -6 25 -15z m1 -60 c0 -5 -12 -11 -26 -13 -18 -2 -25 1 -25 13 0 12 7 15 25 13 14 -2 26 -7 26 -13z"></path> <path d="M1208 398 c-51 -40 -3 -121 57 -98 32 12 25 25 -13 25 -22 0 -28 5 -30 29 -3 27 -2 28 27 23 33 -7 53 9 30 24 -20 13 -53 11 -71 -3z"></path> <path d="M3129 1041 c-67 -22 -99 -66 -99 -136 0 -55 23 -90 145 -216 121 -125 141 -161 132 -233 -8 -58 -43 -86 -109 -86 -43 0 -54 4 -83 33 -22 22 -35 47 -40 75 -7 44 -11 47 -34 33 -30 -19 13 -123 66 -158 35 -23 136 -24 179 -1 63 34 83 140 43 221 -12 23 -70 92 -129 152 -119 122 -130 138 -130 190 0 57 44 95 108 95 65 0 109 -34 118 -90 8 -46 18 -65 33 -56 29 18 -7 131 -52 161 -29 19 -111 28 -148 16z"></path> <path d="M3929 1041 c-67 -22 -99 -66 -99 -136 0 -55 23 -90 145 -216 121 -125 141 -161 132 -233 -8 -58 -43 -86 -109 -86 -43 0 -54 4 -83 33 -22 22 -35 47 -40 75 -7 44 -11 47 -34 33 -30 -19 13 -123 66 -158 35 -23 136 -24 179 -1 63 34 83 140 43 221 -12 23 -70 92 -129 152 -119 122 -130 138 -130 190 0 57 44 95 108 95 65 0 109 -34 118 -90 8 -46 18 -65 33 -56 29 18 -7 131 -52 161 -29 19 -111 28 -148 16z"></path> <path d="M1670 1020 c0 -18 7 -20 70 -20 l70 0 0 -330 c0 -323 0 -330 20 -330 20 0 20 7 20 330 l0 330 70 0 c63 0 70 2 70 20 0 19 -7 20 -160 20 -153 0 -160 -1 -160 -20z"></path> <path d="M2080 690 c0 -343 0 -350 20 -350 19 0 20 7 20 175 l0 175 125 0 125 0 0 -175 c0 -168 1 -175 20 -175 20 0 20 7 20 350 0 343 0 350 -20 350 -19 0 -20 -7 -20 -160 l0 -160 -125 0 -125 0 0 160 c0 153 -1 160 -20 160 -20 0 -20 -7 -20 -350z"></path> <path d="M2550 690 l0 -350 120 0 c100 0 120 3 120 15 0 12 -18 15 -100 15 l-100 0 0 160 0 160 80 0 c64 0 80 3 80 15 0 12 -16 15 -80 15 l-80 0 0 140 0 140 100 0 c93 0 100 1 100 20 0 19 -7 20 -120 20 l-120 0 0 -350z"></path> <path d="M3410 1037 c0 -2 36 -108 80 -236 l80 -232 0 -115 0 -114 25 0 25 0 0 117 0 116 75 228 c41 126 75 231 75 234 0 4 -10 5 -22 3 -19 -3 -30 -27 -83 -198 -34 -107 -64 -202 -67 -210 -3 -8 -36 81 -74 198 -62 195 -70 212 -91 212 -13 0 -23 -1 -23 -3z"></path> <path d="M4210 1020 c0 -18 7 -20 70 -20 l70 0 0 -330 c0 -323 0 -330 20 -330 20 0 20 7 20 330 l0 330 70 0 c63 0 70 2 70 20 0 19 -7 20 -160 20 -153 0 -160 -1 -160 -20z"></path> <path d="M4620 690 l0 -350 120 0 c100 0 120 3 120 15 0 12 -18 15 -100 15 l-100 0 0 160 0 160 80 0 c64 0 80 3 80 15 0 12 -16 15 -80 15 l-80 0 0 140 0 140 100 0 c93 0 100 1 100 20 0 19 -7 20 -120 20 l-120 0 0 -350z"></path> <path d="M4966 908 c-3 -73 -9 -231 -12 -351 -6 -217 -6 -217 15 -217 20 0 21 4 22 138 1 75 4 205 8 287 l6 150 70 -284 c64 -258 81 -308 102 -288 3 4 37 131 74 283 38 152 70 279 72 281 5 4 17 -352 17 -479 0 -83 1 -88 21 -88 21 0 21 0 15 233 -3 127 -9 285 -12 350 -6 111 -7 117 -28 117 -19 0 -24 -14 -53 -138 -89 -372 -116 -482 -121 -477 -3 3 -37 141 -77 308 -64 271 -73 302 -92 305 -20 3 -21 -2 -27 -130z"></path> <path d="M1295 786 c-117 -52 -97 -228 29 -252 51 -9 119 26 141 73 33 70 2 148 -72 179 -40 17 -59 17 -98 0z m90 -30 c33 -14 65 -59 65 -91 0 -54 -74 -114 -123 -99 -43 13 -77 55 -77 95 0 43 37 95 73 102 12 2 23 5 25 6 1 0 18 -5 37 -13z"></path> <path d="M952 279 c-56 -12 -102 -69 -102 -126 0 -67 67 -133 135 -133 65 0 128 63 128 128 0 90 -74 150 -161 131z m99 -58 c49 -49 38 -125 -23 -157 -58 -30 -131 6 -144 72 -17 93 99 153 167 85z"></path> </g> </svg> 