<svg width="151" height="143" xmlns="http://www.w3.org/2000/svg" preserveAspectRatio="xMidYMid meet">

 <g>
  <rect fill="none" id="canvas_background" height="145" width="153" y="-1" x="-1"/>
 </g>
 <g>
  <path d="m86.500001,4.499998c-3.5,3.4 -3.5,9.6 0,13c5.7,5.8 15.5,1.5 15.5,-6.7c0,-5.4 -3.5,-8.8 -9,-8.8c-3,0 -4.7,0.6 -6.5,2.5zm10.7,2.2c3.8,3.4 1.1,10.3 -4,10.3c-5.4,0 -8.1,-6.2 -4.5,-10.2c2,-2.2 6.1,-2.3 8.5,-0.1z"/>
  <path d="m47.865999,4.997653c-2.094796,1.09856 -4.488848,3.095943 -5.286865,4.394242c-1.296778,1.897513 -2.693309,2.496728 -6.982652,2.796336c-8.778191,0.699084 -16.359356,8.588745 -16.459108,16.977752c0,1.797644 -0.997522,3.295681 -2.892813,4.693849c-4.788104,3.39555 -7.082404,8.089399 -7.082404,14.281285c0,4.494111 -0.399009,5.892279 -2.493804,7.789792c-3.192069,2.996074 -4.289343,7.590054 -4.089839,17.17749c0.099752,6.791101 0.399009,7.98953 2.693309,10.486258c2.194548,2.29699 2.493804,3.295681 1.795539,5.592671c-0.798017,2.896205 0.199504,6.89097 2.394052,9.487567c0.598513,0.798953 1.296778,3.295681 1.39653,5.492802c0.498761,7.190577 7.082404,14.580893 14.264561,16.178799c1.795539,0.399477 2.992565,1.597906 3.890335,3.994765c1.39653,4.094634 6.8829,8.588745 14.763321,12.184034c7.780669,3.595289 20.449195,3.994765 24.938043,0.699084c5.98513,-4.394242 5.785626,-2.596597 5.685874,-64.315718c0,-42.34451 -0.399009,-57.324879 -1.296778,-60.221084c-1.995043,-5.892279 -6.982652,-9.088091 -14.962826,-9.387698c-5.087361,-0.299607 -7.381661,0.099869 -10.274474,1.697775zm19.451673,4.793718c2.892813,2.896205 3.192069,3.795027 3.491326,10.685997l0.399009,7.490185l-4.5886,0c-4.688352,0 -9.376704,1.797644 -12.86803,4.793718c-1.596035,1.398168 -1.995043,1.398168 -4.488848,-0.399477c-4.089839,-2.996074 -7.381661,-10.086782 -6.783148,-14.680762c0.498761,-4.194503 2.493804,-6.89097 7.082404,-9.887044c2.2943,-1.498037 4.289343,-1.797644 8.778191,-1.498037c4.887856,0.299607 6.284387,0.798953 8.977695,3.495419zm-28.229864,9.18796c0,5.592671 2.094796,9.986913 6.8829,14.580893c3.990087,3.894896 3.990087,3.994765 2.892813,7.789792c-0.798017,2.396859 -2.194548,4.294372 -3.990087,5.193195c-3.790583,1.897513 -6.583643,6.291755 -4.887856,7.390315c0.89777,0.499346 2.2943,-0.299607 3.990087,-2.29699c2.693309,-2.896205 5.286865,-3.495419 10.473978,-2.596597c3.291822,0.699084 2.992565,-2.097252 -0.299257,-3.195812c-2.593556,-0.898822 -3.092317,-1.498037 -2.593556,-3.295681c1.895291,-6.291755 8.678439,-11.584819 15.062578,-11.584819l4.389096,0l0,21.571732l0,21.571732l-3.291822,3.295681c-3.890335,3.894896 -10.074969,5.992148 -15.062578,5.093326c-4.389096,-0.798953 -10.374226,-5.892279 -12.269517,-10.28652c-0.698265,-1.797644 -1.995043,-3.295681 -2.793061,-3.295681c-1.895291,0 -1.895291,0.099869 0.199504,5.093326c1.596035,4.094634 1.596035,4.194503 -0.598513,6.092017c-3.291822,2.596597 -8.578687,2.29699 -11.571252,-0.599215c-4.488848,-4.494111 -4.488848,-10.486258 0,-14.680762c2.693309,-2.696466 3.291822,-4.893587 1.097274,-4.893587c-1.895291,0 -6.384139,5.492802 -7.182156,8.588745c-1.995043,7.98953 3.990087,16.378537 11.671004,16.378537c2.394052,0 5.486369,-0.798953 7.281909,-1.997383l3.192069,-1.897513l4.887856,2.396859c6.583643,3.39555 11.870508,3.195812 18.85316,-0.399477l5.586122,-2.996074l0,13.282594c0,14.8805 -0.399009,15.779322 -8.179678,19.075003c-5.087361,2.097252 -5.586122,1.997383 -5.98513,-1.697775c-0.199504,-2.097252 -0.798017,-3.295681 -1.795539,-3.295681c-1.097274,0 -1.39653,0.898822 -1.197026,3.695158c0.399009,3.795027 -1.795539,9.287829 -3.990087,10.086782c-0.997522,0.399477 -0.997522,0.699084 0,1.797644c1.097274,1.19843 1.895291,0.798953 4.488848,-2.396859c1.795539,-1.997383 3.890335,-3.695158 4.688352,-3.695158c0.798017,0 3.890335,-1.09856 6.783148,-2.496728l5.187113,-2.396859l0,8.389007c0,13.282594 -2.394052,16.07893 -13.865552,15.879191c-7.581165,-0.099869 -15.361834,-3.095943 -21.247212,-8.289138c-6.084882,-5.293064 -7.082404,-11.48495 -3.192069,-19.674218c1.296778,-2.796336 1.895291,-3.195812 3.391574,-2.396859c2.493804,1.298299 2.992565,1.298299 2.992565,-0.499346c0,-0.898822 -0.698265,-1.797644 -1.496283,-2.197121c-0.89777,-0.299607 -2.194548,-1.797644 -2.992565,-3.39555c-0.997522,-1.797644 -1.995043,-2.596597 -2.992565,-2.29699c-1.097274,0.499346 -1.197026,0.998691 -0.399009,2.596597c0.89777,1.597906 0.698265,2.796336 -0.89777,5.69254c-1.097274,1.997383 -2.2943,5.293064 -2.693309,7.290446c-0.997522,5.193195 -3.591078,4.993456 -9.077448,-0.599215c-3.890335,-3.795027 -4.389096,-4.893587 -4.389096,-8.788483c0,-5.093326 2.394052,-8.888352 7.082404,-11.285211c2.394052,-1.298299 4.089839,-4.494111 2.394052,-4.494111c-1.895291,0 -8.678439,4.394242 -10.074969,6.591362c-1.296778,1.897513 -1.895291,2.197121 -2.493804,1.19843c-1.296778,-1.997383 -0.997522,-6.191886 0.598513,-8.389007c1.995043,-2.596597 1.895291,-2.696466 -1.39653,-4.194503c-3.591078,-1.597906 -5.785626,-6.391624 -4.488848,-9.986913c0.498761,-1.498037 2.394052,-3.595289 4.089839,-4.693849c3.092317,-1.897513 4.389096,-4.494111 2.2943,-4.494111c-0.598513,0 -2.493804,0.699084 -4.089839,1.597906c-2.992565,1.498037 -3.092317,1.498037 -2.394052,-0.798953c1.197026,-4.494111 2.992565,-6.990839 5.685874,-8.389007c2.394052,-1.19843 2.693309,-1.797644 1.795539,-3.39555c-2.094796,-3.894896 -1.197026,-9.687305 2.094796,-13.482332c1.695787,-1.897513 3.591078,-3.495419 4.289343,-3.495419c0.598513,0 1.995043,1.597906 3.092317,3.595289c2.2943,4.294372 8.478935,8.988221 9.576208,7.190577c0.498761,-0.699084 -0.997522,-2.796336 -3.591078,-5.193195c-6.683395,-6.291755 -7.980174,-14.481023 -3.192069,-20.672909c1.995043,-2.696466 7.980174,-5.892279 10.972739,-5.892279c2.493804,0 2.693309,0.299607 2.693309,3.994765z"/>
  <path d="m112.400002,17.399998c-3.8,1.7 -7.1,6.1 -7.6,10.1c-0.2,2.2 -1,3 -3.2,3.6c-2.4,0.7 -3.5,0.3 -6.3,-2.1c-4.5,-4 -8.5,-4 -12.4,-0.1c-5.9,6 -2.3,15.6 5.9,15.6c4.5,0 8.9,-3.2 9.4,-6.8c0.2,-1.2 1.5,-2.4 3.1,-3c2.6,-0.8 3.2,-0.6 5.7,2.4c3.4,4 3.5,4.7 1.3,9.4c-1.6,3.4 -1.8,3.5 -7.5,3.5c-6.9,0 -11.3,1.7 -15,5.6c-3.5,3.8 -4.8,7.4 -4.8,13.6c0,12.7 12.1,21 25.6,17.5c3,-0.8 3.3,-0.6 6.3,4.3c3,4.8 3,5.2 1.5,7.5c-1.3,1.9 -2.5,2.5 -5.4,2.5c-5,0 -7,-0.8 -7,-3c0,-0.9 -1.2,-2.9 -2.6,-4.4c-3.6,-3.5 -9.5,-3.6 -12.9,-0.1c-3.5,3.4 -3.5,9.6 0,13c3.4,3.5 9.6,3.5 13.1,0c2,-2 3.5,-2.5 7.3,-2.5l4.8,0l0.7,3.9c0.4,2.5 1.7,5.1 3.6,7c9.6,9.5 25.5,0.1 22,-13c-1.9,-6.8 -10.2,-11.3 -16.5,-8.9c-1.5,0.6 -2.9,0.9 -3,0.8c-0.2,-0.2 -1.7,-2.5 -3.3,-5.2l-3.1,-4.9l2.3,-3.1c3,-4 4.8,-9.7 4.4,-13.7c-0.3,-2.8 0.3,-3.6 4.5,-6.7c4.2,-3 5.1,-3.3 7.3,-2.3c4.1,1.8 7.4,1.3 10.5,-1.8c5.9,-6 2.3,-15.6 -5.9,-15.6c-5.9,0 -9.2,3.4 -9.2,9.4c-0.1,4.2 -0.4,4.8 -4.1,7.3c-4.1,2.9 -5.9,3.5 -5.9,1.9c0,-0.5 -1.3,-2.2 -3,-3.8c-3.5,-3.3 -3.6,-4.1 -1,-9.2c1.6,-3.2 2.3,-3.8 4.3,-3.4c1.4,0.3 4.5,-0.4 6.9,-1.5c10.2,-4.5 10.4,-18.3 0.4,-23.2c-4.9,-2.3 -6.9,-2.4 -11.2,-0.6zm11.2,4.1c5.3,3.4 5.4,11.9 0.1,15.8c-4.2,3.2 -9.3,2.8 -12.8,-1.1c-3.7,-4.2 -3.9,-8.9 -0.4,-13.1c3.6,-4.2 8.1,-4.7 13.1,-1.6zm-30.6,9.5c3.3,3.3 2.4,8.5 -1.7,10.1c-2.5,0.9 -6,-0.2 -7.5,-2.5c-2.3,-3.4 1,-9.6 5.2,-9.6c1.1,0 2.9,0.9 4,2zm45.400001,14.1c3.1,2.5 3.4,6.1 0.6,8.9c-2.4,2.4 -4.8,2.5 -7.8,0.4c-2.2,-1.5 -3,-5.7 -1.4,-8c0.7,-1.1 4.2,-3.3 5.3,-3.4c0.4,0 1.8,0.9 3.3,2.1zm-32,9.3c4,1.7 7.3,5.7 8.6,10.5c2.9,10.8 -8.3,22 -19.2,19.1c-8,-2.2 -12.4,-8.6 -11.6,-16.9c1.1,-11 11.7,-17.1 22.2,-12.7zm-9.4,41.600001c2.4,2.4 2.6,5.7 0.3,8.2c-3.4,3.8 -10.3,1.1 -10.3,-4c0,-5.6 6.1,-8.1 10,-4.2zm35.300001,2.8c5.2,5.4 2.9,14.2 -4.2,16.3c-3.1,0.9 -4.3,0.8 -7,-0.5c-3.9,-2.1 -6.6,-7.3 -5.7,-11.1c1.9,-7.6 11.6,-10.3 16.9,-4.7z"/>
  <path d="m114.3,29c-2.3,6.2 -1.7,7.6 2,4.3c1.8,-1.7 1.9,-1.7 3.2,0c1.8,2.5 3.8,2.2 2.9,-0.6c-3.7,-11.6 -5.1,-12.3 -8.1,-3.7zm4.2,0c0.3,0.5 0.1,1 -0.4,1c-0.6,0 -1.1,-0.5 -1.1,-1c0,-0.6 0.2,-1 0.4,-1c0.3,0 0.8,0.4 1.1,1z"/>
  <path d="m94.000001,68.599999l0,7.5l5.1,-0.3c5.7,-0.3 7.8,-2.2 6.4,-5.4c-0.4,-1.1 -0.7,-3.2 -0.6,-4.8c0.3,-3.5 -1.2,-4.6 -6.6,-4.6l-4.3,0l0,7.6zm8,-3.1c0,0.9 -0.9,1.5 -2.5,1.5c-1.6,0 -2.5,-0.6 -2.5,-1.5c0,-0.9 0.9,-1.5 2.5,-1.5c1.6,0 2.5,0.6 2.5,1.5zm0.1,6c0,0.5 -1.2,1.1 -2.6,1.3c-1.8,0.2 -2.5,-0.1 -2.5,-1.3c0,-1.2 0.7,-1.5 2.5,-1.3c1.4,0.2 2.6,0.7 2.6,1.3z"/>
  <path d="m121.800002,101.199999c-5.1,4 -0.3,12.1 5.7,9.8c3.2,-1.2 2.5,-2.5 -1.3,-2.5c-2.2,0 -2.8,-0.5 -3,-2.9c-0.3,-2.7 -0.2,-2.8 2.7,-2.3c3.3,0.7 5.3,-0.9 3,-2.4c-2,-1.3 -5.3,-1.1 -7.1,0.3z"/>
  <path  d="m130.500002,62.399999c-11.7,5.2 -9.7,22.8 2.9,25.2c5.1,0.9 11.9,-2.6 14.1,-7.3c3.3,-7 0.2,-14.8 -7.2,-17.9c-4,-1.7 -5.9,-1.7 -9.8,0zm9,3c3.3,1.4 6.5,5.9 6.5,9.1c0,5.4 -7.4,11.4 -12.3,9.9c-4.3,-1.3 -7.7,-5.5 -7.7,-9.5c0,-4.3 3.7,-9.5 7.3,-10.2c1.2,-0.2 2.3,-0.5 2.5,-0.6c0.1,0 1.8,0.5 3.7,1.3z"/>
  <path  d="m96.200001,113.1c-5.6,1.2 -10.2,6.9 -10.2,12.6c0,6.7 6.7,13.3 13.5,13.3c6.5,0 12.8,-6.3 12.8,-12.8c0,-9 -7.4,-15 -16.1,-13.1zm9.9,5.8c4.9,4.9 3.8,12.5 -2.3,15.7c-5.8,3 -13.1,-0.6 -14.4,-7.2c-1.7,-9.3 9.9,-15.3 16.7,-8.5z"/>
 </g>
</svg>